<svg width="2840" height="460" viewBox="0 0 2840 460" fill="none" xmlns="http://www.w3.org/2000/svg">
<path d="M2608.64 170.8C2605.64 164.8 2597.84 152.8 2600.24 146.2C2605.04 132.4 2702.24 62.8 2716.04 28C2726.24 19 2758.04 18.4 2771.84 18.4C2783.24 18.4 2828.24 17.8 2833.64 23.8C2836.04 26.8 2836.64 31.6 2837.24 35.2C2839.64 52.6 2842.04 436.6 2835.44 446.2C2830.04 454.6 2732.84 458.2 2719.64 454.6C2714.84 452.8 2710.04 449.8 2708.84 444.4C2704.04 423.4 2715.44 209.2 2716.64 167.2C2709.44 174.4 2659.64 221.8 2650.64 222.4C2637.44 223 2614.64 181.6 2608.64 170.8Z" fill="white"/>
<path d="M2196.67 339.4C2184.67 273.4 2189.47 134.2 2218.87 74.1999C2239.87 31.5999 2272.27 9.99992 2318.47 4.59991C2338.27 2.19991 2368.27 0.399902 2400.07 0.399902C2455.87 0.399902 2517.67 6.39989 2544.67 28.5999C2563.27 43.5999 2575.87 66.3999 2578.27 90.3999C2586.67 180.4 2589.67 292.6 2556.67 377.8C2532.07 442 2454.67 460 2392.87 460C2308.27 460 2213.47 434.2 2196.67 339.4ZM2322.07 119.8C2298.07 146.2 2299.87 287.2 2320.27 317.2C2335.87 340 2370.67 344.2 2395.87 344.2C2420.47 344.2 2445.07 338.2 2459.47 319C2484.07 286.6 2483.47 147.4 2455.27 119.2C2440.27 103.6 2414.47 100.6 2393.47 99.9999C2368.87 99.3999 2339.47 100.6 2322.07 119.8Z" fill="white"/>
<path d="M1863.51 448.6C1857.51 448 1849.11 445 1849.11 437.2C1849.11 422.2 1850.31 346 1861.11 339.4C1864.71 337 1909.11 343 1951.71 343C1986.51 343 2020.11 338.8 2029.71 323.8C2036.31 313 2036.91 296.2 2029.71 285.4C2020.71 271.6 1995.51 267.4 1968.51 267.4C1936.11 267.4 1900.71 273.4 1884.51 277C1876.71 278.8 1865.31 278.2 1861.11 269.8C1851.51 250 1859.31 23.2001 1868.91 14.8C1871.91 11.8 1875.51 11.8 1879.11 11.2001C1896.51 9.40008 1914.51 11.8 1931.91 12.4001C1996.71 14.8 2060.91 15.4001 2125.71 15.4001C2132.31 15.4001 2140.11 14.2001 2141.31 22.6C2143.71 39.4 2139.51 89.2001 2138.31 108.4C2138.31 110.2 2138.31 120.4 2137.71 121.6C2135.91 126.4 2131.71 127 2126.91 127.6C2093.91 131.8 1990.71 127 1954.11 123.4C1949.91 137.2 1949.91 179.8 1952.91 194.2C1999.71 190.6 2056.71 191.8 2097.51 218.2C2176.71 269.2 2164.71 387.4 2086.71 433C2058.51 449.2 2006.31 454.6 1957.11 454.6C1921.11 454.6 1886.91 451.6 1863.51 448.6Z" fill="white"/>
<path d="M1265.31 140.8C1257.51 136 1247.91 12.4 1267.71 7.00001C1277.31 4.6 1468.11 14.8 1497.51 16C1510.71 16.6 1628.91 17.8 1630.11 18.4C1638.51 23.8 1641.51 56.2 1642.11 66.4C1642.71 81.4 1645.71 139.6 1629.51 143.8C1617.51 146.8 1601.91 148 1586.31 148C1562.31 148 1535.91 145.6 1516.11 145.6C1516.11 166 1516.11 440.8 1513.71 444.4C1504.11 458.8 1415.91 455.2 1396.71 455.2C1387.11 455.2 1367.91 457 1366.11 443.8C1361.91 415.6 1366.71 378.4 1367.91 349.6C1369.71 281.2 1373.31 212.2 1374.51 143.2C1360.11 143.2 1272.51 145 1265.31 140.8Z" fill="white"/>
<path d="M837.519 451C833.919 450.4 824.919 448.6 827.919 443.2C846.519 406.6 856.719 361.6 869.919 322C894.519 248.8 921.519 176.2 949.719 104.8C960.519 79 971.319 40 985.719 17.1999C989.919 9.99996 1002.52 13.5999 1009.12 13.5999C1024.72 13.5999 1150.12 12.4 1153.72 18.4C1168.12 41.7999 1177.72 76 1187.92 101.8C1215.52 170.2 1240.72 239.2 1264.72 308.8C1280.32 354.4 1294.72 400.6 1312.12 445.6C1313.92 451 1298.92 452.8 1296.52 452.8C1256.32 455.8 1212.52 451.6 1172.32 449.8C1169.92 449.8 1160.32 449.8 1162.72 444.4C1159.72 440.2 1146.52 390.4 1144.12 381.4C1094.92 379.6 1045.12 377.8 995.919 379.6C989.319 400.6 984.519 422.2 977.319 443.2C979.119 448.6 969.519 448.6 967.119 448.6C948.519 449.2 848.319 453.4 837.519 451ZM1019.32 299.8C1052.92 298.6 1086.52 299.8 1120.12 299.8L1069.72 125.8L1019.32 299.8Z" fill="white"/>
<path d="M445.4 413.2C356 350.8 362 178.6 410.6 92.8C450.2 23.7999 519.2 2.19995 593.6 2.19995C649.4 2.19995 710.6 14.7999 744.8 46C768.8 67.6 785 99.9999 796.4 129.4C842 250.6 819.8 402.4 680 444.4C654.8 452.2 627.2 455.8 599.6 455.8C548.6 455.8 488 442.6 445.4 413.2ZM509.6 148.6C487.4 178.6 483.8 296.8 517.4 320.8C536.6 335.2 580.4 337.6 604.4 337.6C635.6 337.6 669.8 331.6 684.8 310.6C703.4 283.6 699.2 199.6 690.2 168.4C678.2 122.8 630.8 120.4 591.2 120.4C563 120.4 527.6 124 509.6 148.6Z" fill="white"/>
<path d="M68.5996 410.2C-25.6004 333.4 -16.6004 139.6 63.1996 55.6C104.6 11.8 152 4.59999 209.6 3.39997C229.4 2.79998 324.2 2.79998 336.2 11.2C337.4 41.2 342.2 77.2 339.2 106.6C338.6 112 338 116.8 331.4 118C322.4 119.2 226.4 116.8 209.6 116.8C189.8 116.2 169.4 121 153.8 134.2C118.4 164.2 111.2 290.8 149 319.6C165.8 332.2 231.8 326.8 254 326.2V278.8C244.4 278.8 198.8 283 194.6 272.8C191.6 265 189.2 188.8 203 188.2C231.8 186.4 303.8 185.8 331.4 187.6C335.6 187.6 339.2 189.4 341.6 193C349.4 206.2 348.2 411.4 338.6 426.4C323 449.8 218.6 448 190.4 448C147.8 448 102.2 437.8 68.5996 410.2Z" fill="white"/>
</svg>
