<svg width="100" height="100" viewBox="0 0 100 100" fill="none" xmlns="http://www.w3.org/2000/svg">
<rect width="100" height="100" rx="50" fill="#A2C0BE"/>
<g clip-path="url(#clip0_3419_31)">
<path fill-rule="evenodd" clip-rule="evenodd" d="M40.4057 47.1456C36.3119 45.1379 34.3294 43.3091 33.2043 41.4973C32.7702 41.2505 32.3452 41.0254 31.9294 40.822C29.1166 39.6486 25.8718 39.2171 22.6279 40.7671C28.3598 44.5949 26.9952 54.3536 34.71 51.9849C35.5503 49.4908 37.8428 48.2442 39.4025 47.7365C39.7857 47.6111 40.1562 47.4818 40.5137 47.3472C40.5463 47.3141 40.5794 47.2802 40.613 47.2466C40.5433 47.2131 40.4741 47.1791 40.4057 47.1456Z" fill="#2C3A49"/>
<path fill-rule="evenodd" clip-rule="evenodd" d="M15.0652 56.7958C14.2671 47.2236 20.0286 34.9996 31.9295 40.8225C32.3453 41.0258 32.7703 41.2509 33.2044 41.4978C34.3291 43.3096 36.312 45.1383 40.4058 47.1461L40.6131 47.2471C40.5795 47.2806 40.546 47.3146 40.5138 47.3477C40.5748 47.325 40.6353 47.3019 40.6958 47.2784C26.2712 40.3047 37.3431 35.4777 21.9867 26.1057C21.9867 26.1057 3.48349 34.8785 14.5031 57.8374C14.9507 58.7696 15.2551 59.0666 15.0657 56.7954" fill="#2C3A49"/>
<path fill-rule="evenodd" clip-rule="evenodd" d="M28.4371 31.231C27.0647 29.6683 25.0535 27.9784 21.9864 26.1057C21.9864 26.1057 3.4832 34.8785 14.5024 57.8374C14.7092 58.268 14.8855 58.5632 14.9966 58.5319C14.994 58.5214 8.91159 35.3479 28.4371 31.231Z" fill="#2C3A49"/>
<path fill-rule="evenodd" clip-rule="evenodd" d="M50.2076 39.0703C50.2076 39.0703 39.1423 18.2755 21.0366 25.5401C37.7942 35.2861 25.9839 40.1658 40.6958 47.2784C47.2176 44.7756 49.4948 40.8107 50.2076 39.0703Z" fill="#2C3A49"/>
<path fill-rule="evenodd" clip-rule="evenodd" d="M43.5292 80.5297C50.4707 59.7018 32.8736 55.1931 40.5135 47.3472C40.156 47.4813 39.7855 47.6111 39.4023 47.7365C37.8426 48.2442 35.5501 49.4908 34.7098 51.9849C34.4368 52.7948 34.317 53.7361 34.4255 54.8264C35.5175 65.8008 39.8617 64.646 41.8829 74.1338C42.3693 76.4172 42.762 78.755 43.5288 80.5302" fill="#2C3A49"/>
<path fill-rule="evenodd" clip-rule="evenodd" d="M40.5134 47.3472C32.8736 55.1931 50.4702 59.7018 43.5292 80.5297C45.4533 84.9858 55.5468 84.9858 57.4713 80.5297C50.5298 59.7018 68.1265 55.1926 60.4866 47.3472C60.4261 47.3246 60.3655 47.3015 60.305 47.278C53.7833 44.7752 51.5061 40.8103 50.7928 39.0699C50.6949 38.9005 50.2351 38.9689 50.2076 39.0699C49.4949 40.8103 47.2176 44.7752 40.6954 47.278C40.6354 47.3015 40.5748 47.3246 40.5139 47.3472" fill="#2C3A49"/>
<path fill-rule="evenodd" clip-rule="evenodd" d="M21.0366 25.5401C40.4664 22.3289 32.6484 43.8038 46.7869 43.694C48.8299 41.8836 49.7887 40.0927 50.2076 39.0703C50.2076 39.0703 39.1423 18.2755 21.0366 25.5401Z" fill="#2C3A49"/>
<path fill-rule="evenodd" clip-rule="evenodd" d="M14.6169 45.1244C14.6169 45.1244 11.4135 48.0361 11.8302 38.3349C10.3955 43.172 10.5435 49.5892 14.5023 57.8374C14.7092 58.268 14.8855 58.5632 14.9965 58.5319C14.9952 58.5266 13.2592 51.9126 14.6173 45.1244" fill="#2C3A49"/>
<path fill-rule="evenodd" clip-rule="evenodd" d="M16.9624 38.8761C24.9942 29.8063 27.1739 39.3673 27.1739 39.3673C28.6312 39.5192 30.2166 39.9834 31.9295 40.8211C32.3449 41.0249 32.7703 41.25 33.204 41.4969C34.3291 43.3091 36.312 45.1375 40.4059 47.1452L40.6131 47.2462L40.5138 47.3468L40.6954 47.2776C29.1524 41.6968 33.9381 37.4906 28.4375 31.2301C22.6159 32.4576 19.0707 35.3793 16.9624 38.8757" fill="#2C3A49"/>
<path fill-rule="evenodd" clip-rule="evenodd" d="M22.6279 40.7672C35.4711 40.4071 28.3877 52.5662 37.9917 48.3356C38.4872 48.0731 38.9723 47.8767 39.4025 47.7365C39.7857 47.6115 40.1562 47.4818 40.5137 47.3472L40.613 47.2466L40.4057 47.1456C36.3119 45.1379 34.3294 43.3096 33.2038 41.4974C32.7702 41.2505 32.3448 41.0254 31.9294 40.8216C29.1166 39.6486 25.8718 39.2171 22.6279 40.7672Z" fill="#2C3A49"/>
<path fill-rule="evenodd" clip-rule="evenodd" d="M27.9035 41.6511C27.9035 41.6511 28.8684 39.4008 33.2038 41.4974C32.7702 41.2505 32.3448 41.0254 31.9294 40.8216C29.1166 39.6486 25.8718 39.2171 22.6279 40.7672C24.9796 40.7014 26.6634 41.0554 27.9035 41.6511Z" fill="#2C3A49"/>
<path fill-rule="evenodd" clip-rule="evenodd" d="M36.6773 63.1534C36.6773 63.1534 33.1068 53.3086 39.5602 55.0546C38.2439 52.3476 37.8873 50.0447 40.5137 47.3472C40.1563 47.4813 39.7857 47.6115 39.4026 47.7365C38.9728 47.8767 38.4873 48.0726 37.9918 48.3356C36.6895 49.0262 35.3188 50.1783 34.7096 51.9853C34.4366 52.7952 34.3173 53.7366 34.4253 54.8269C34.8272 58.8684 35.6706 61.265 36.6768 63.1538" fill="#2C3A49"/>
<path fill-rule="evenodd" clip-rule="evenodd" d="M44.8903 67.5268C44.7684 77.2497 41.2998 71.8596 41.2998 71.8596C41.5097 72.545 41.7056 73.2983 41.8837 74.133C42.3701 76.4167 42.7628 78.7541 43.5296 80.5297C45.2874 75.255 45.4716 71.0271 44.8903 67.5268Z" fill="#2C3A49"/>
<path fill-rule="evenodd" clip-rule="evenodd" d="M60.5949 47.1456C64.6887 45.1379 66.6708 43.3091 67.7959 41.4973C68.23 41.2505 68.655 41.0254 69.0708 40.822C71.8832 39.6486 75.1284 39.2171 78.3722 40.7671C72.6404 44.5949 74.005 54.3536 66.2902 51.9849C65.4498 49.4908 63.1569 48.2442 61.5977 47.7365C61.2145 47.6111 60.844 47.4818 60.4865 47.3472C60.4534 47.3141 60.4207 47.2802 60.3872 47.2466C60.4569 47.2131 60.5261 47.1791 60.5945 47.1456" fill="#2C3A49"/>
<path fill-rule="evenodd" clip-rule="evenodd" d="M85.9353 56.7958C86.7334 47.2236 80.972 34.9996 69.0711 40.8225C68.6552 41.0258 68.2303 41.2509 67.7961 41.4978C66.671 43.3096 64.6886 45.1383 60.5952 47.1461L60.3879 47.2471C60.4214 47.2806 60.4545 47.3146 60.4872 47.3477C60.4262 47.325 60.3657 47.3019 60.3052 47.2784C74.7298 40.3047 63.6579 35.4777 79.0143 26.1057C79.0143 26.1057 97.5175 34.8785 86.4979 57.8374C86.0503 58.7696 85.7459 59.0666 85.9353 56.7954" fill="#2C3A49"/>
<path fill-rule="evenodd" clip-rule="evenodd" d="M72.5625 31.231C73.9349 29.6683 75.9466 27.9784 79.0137 26.1057C79.0137 26.1057 97.5164 34.8785 86.4972 57.8374C86.2904 58.268 86.1141 58.5632 86.0035 58.5319C86.0061 58.5214 92.0885 35.3479 72.5625 31.231Z" fill="#2C3A49"/>
<path fill-rule="evenodd" clip-rule="evenodd" d="M50.793 39.0703C50.793 39.0703 61.8583 18.2755 79.9635 25.5401C63.2064 35.2861 75.0163 40.1658 60.3047 47.2784C53.783 44.7756 51.5058 40.8107 50.793 39.0703Z" fill="#2C3A49"/>
<path fill-rule="evenodd" clip-rule="evenodd" d="M57.4713 80.5297C50.5298 59.7018 68.1264 55.1931 60.487 47.3472C60.8445 47.4813 61.215 47.6111 61.5982 47.7365C63.1579 48.2442 65.4508 49.4908 66.2907 51.9849C66.5633 52.7948 66.683 53.7361 66.575 54.8264C65.483 65.8008 61.1388 64.646 59.1176 74.1338C58.6312 76.4172 58.238 78.755 57.4713 80.5302" fill="#2C3A49"/>
<path fill-rule="evenodd" clip-rule="evenodd" d="M79.9634 25.5401C60.5337 22.3289 68.3521 43.8038 54.2136 43.694C52.1706 41.8836 51.2114 40.0927 50.7925 39.0703C50.7925 39.0703 61.8582 18.2755 79.9634 25.5401Z" fill="#2C3A49"/>
<path fill-rule="evenodd" clip-rule="evenodd" d="M86.3827 45.1244C86.3827 45.1244 89.5865 48.0361 89.1698 38.3349C90.6046 43.172 90.4561 49.5892 86.4977 57.8374C86.2909 58.268 86.1145 58.5632 86.0039 58.5319C86.0052 58.5266 87.7408 51.9126 86.3827 45.1244Z" fill="#2C3A49"/>
<path fill-rule="evenodd" clip-rule="evenodd" d="M84.0381 38.8761C76.0064 29.8063 73.8267 39.3673 73.8267 39.3673C72.3693 39.5192 70.7839 39.9834 69.0706 40.8211C68.6547 41.0249 68.2298 41.25 67.7957 41.4969C66.671 43.3091 64.6881 45.1375 60.5947 47.1452L60.3874 47.2462L60.4863 47.3468L60.3047 47.2776C71.8485 41.6968 67.0624 37.4906 72.5626 31.2301C78.3842 32.4576 81.9294 35.3793 84.0381 38.8757" fill="#2C3A49"/>
<path fill-rule="evenodd" clip-rule="evenodd" d="M78.3723 40.7672C65.5296 40.4071 72.6134 52.5662 63.0085 48.3356C62.5134 48.0731 62.0284 47.8767 61.5982 47.7365C61.215 47.6115 60.8445 47.4818 60.4865 47.3472L60.3877 47.2466L60.595 47.1456C64.6888 45.1379 66.6712 43.3096 67.7959 41.4974C68.23 41.2505 68.655 41.0254 69.0708 40.8216C71.8837 39.6486 75.128 39.2171 78.3719 40.7672" fill="#2C3A49"/>
<path fill-rule="evenodd" clip-rule="evenodd" d="M73.0972 41.6511C73.0972 41.6511 72.1319 39.4008 67.7964 41.4974C68.2305 41.2505 68.6555 41.0254 69.0713 40.8216C71.8841 39.6486 75.1284 39.2171 78.3723 40.7672C76.021 40.7014 74.3373 41.0554 73.0972 41.6511Z" fill="#2C3A49"/>
<path fill-rule="evenodd" clip-rule="evenodd" d="M64.3232 63.1534C64.3232 63.1534 67.8937 53.3086 61.4403 55.0546C62.757 52.3476 63.1128 50.0447 60.4863 47.3472C60.8442 47.4813 61.2148 47.6115 61.598 47.7365C62.0277 47.8767 62.5132 48.0726 63.0083 48.3356C64.3111 49.0262 65.6818 50.1783 66.2909 51.9853C66.5639 52.7952 66.6832 53.7366 66.5752 54.8269C66.1729 58.8684 65.3299 61.265 64.3241 63.1538" fill="#2C3A49"/>
<path fill-rule="evenodd" clip-rule="evenodd" d="M56.1097 67.5268C56.2321 77.2497 59.7011 71.8596 59.7011 71.8596C59.4908 72.545 59.2948 73.2983 59.1167 74.133C58.6308 76.4167 58.2376 78.7541 57.4708 80.5297C55.7126 75.255 55.5289 71.0271 56.1097 67.5268Z" fill="#2C3A49"/>
<path fill-rule="evenodd" clip-rule="evenodd" d="M40.6327 57.0619C41.7479 52.5104 47.6138 54.0806 50.256 47.6337C50.2786 47.5501 50.6626 47.4927 50.7445 47.6337C53.3862 54.0806 59.2526 52.5104 60.3677 57.0619C60.7613 56.3626 61.128 55.6977 61.4406 55.0546C62.7573 52.3476 63.113 50.0447 60.4866 47.3472L60.305 47.278C57.6154 46.2456 55.6473 44.9646 54.2139 43.6936C52.1709 41.8831 51.2117 40.0923 50.7928 39.0699C50.6949 38.9005 50.2351 38.9689 50.2076 39.0699C49.7883 40.0923 48.8295 41.8831 46.787 43.6936C45.3536 44.9646 43.3855 46.2452 40.6954 47.278L40.5139 47.3472C37.8874 50.0447 38.2436 52.3476 39.5603 55.0546C39.8725 55.6973 40.2396 56.3626 40.6332 57.0619" fill="#2C3A49"/>
<path fill-rule="evenodd" clip-rule="evenodd" d="M55.8412 72.3212C52.8459 76.9249 48.6202 77.0629 45.1581 72.3212C45.0419 74.7452 44.5516 77.4604 43.5288 80.5302C45.4529 84.9862 55.5464 84.9862 57.471 80.5302C56.4477 77.4604 55.9579 74.7452 55.8412 72.3212Z" fill="#2C3A49"/>
<path fill-rule="evenodd" clip-rule="evenodd" d="M31.9091 46.9131C33.1613 54.3283 28.8394 50.255 28.8394 50.255C30.0485 51.974 31.6779 52.9158 34.7097 51.9849C35.3184 50.1775 36.6895 49.0253 37.9919 48.3348C33.801 50.1809 32.7873 48.906 31.9095 46.9127" fill="#2C3A49"/>
<path fill-rule="evenodd" clip-rule="evenodd" d="M69.0906 46.9131C67.8384 54.3283 72.1603 50.255 72.1603 50.255C70.9512 51.974 69.3214 52.9158 66.29 51.9849C65.6813 50.1775 64.3102 49.0253 63.0078 48.3348C67.1987 50.1809 68.2124 48.906 69.0902 46.9127" fill="#2C3A49"/>
<path fill-rule="evenodd" clip-rule="evenodd" d="M32.5818 28.153C32.5818 28.153 35.0593 23.9273 43.2639 30.3358C38.2222 25.7064 30.6146 21.6971 21.0366 25.5401C26.9409 24.5643 30.3289 25.8679 32.5818 28.153Z" fill="#2C3A49"/>
<path fill-rule="evenodd" clip-rule="evenodd" d="M68.4185 28.153C68.4185 28.153 65.9409 23.9273 57.7363 30.3358C62.7781 25.7064 70.3857 21.6975 79.9641 25.5401C74.0598 24.5643 70.6718 25.868 68.4189 28.153" fill="#2C3A49"/>
</g>
<defs>
<clipPath id="clip0_3419_31">
<rect width="79" height="59.8724" fill="white" transform="translate(11 24)"/>
</clipPath>
</defs>
</svg>
